<mxfile host="65bd71144e">
    <diagram name="82ndrop Architecture" id="82ndrop-architecture">
        <mxGraphModel dx="1251" dy="1853" grid="1" gridSize="10" guides="1" tooltips="1" connect="1" arrows="1" fold="1" page="1" pageScale="1" pageWidth="1169" pageHeight="827" math="0" shadow="0">
            <root>
                <mxCell id="0"/>
                <mxCell id="1" parent="0"/>
                <mxCell id="2" value="User Interface" style="text;html=1;strokeColor=none;fillColor=none;align=center;verticalAlign=middle;whiteSpace=wrap;rounded=0;fontSize=24;fontStyle=1;fontColor=#1565C0;" parent="1" vertex="1">
                    <mxGeometry x="485" y="40" width="200" height="30" as="geometry"/>
                </mxCell>
                <mxCell id="3" value="" style="shape=image;html=1;verticalAlign=top;verticalLabelPosition=bottom;labelBackgroundColor=#ffffff;imageAspect=0;aspect=fixed;image=https://cdn1.iconfinder.com/data/icons/user-pictures/100/unknown-128.png;fontSize=12;" parent="1" vertex="1">
                    <mxGeometry x="120" y="100" width="48" height="48" as="geometry"/>
                </mxCell>
                <mxCell id="4" value="" style="shape=image;html=1;verticalAlign=top;verticalLabelPosition=bottom;labelBackgroundColor=#ffffff;imageAspect=0;aspect=fixed;image=https://cdn4.iconfinder.com/data/icons/small-n-flat/24/monitor-128.png;fontSize=12;" parent="1" vertex="1">
                    <mxGeometry x="180" y="100" width="48" height="48" as="geometry"/>
                </mxCell>
                <mxCell id="5" value="Angular Frontend&#xa;(Firebase Hosting)" style="rounded=1;whiteSpace=wrap;html=1;fillColor=#E3F2FD;strokeColor=#1976D2;fontSize=14;fontStyle=1;" parent="1" vertex="1">
                    <mxGeometry x="360" y="94" width="180" height="60" as="geometry"/>
                </mxCell>
                <mxCell id="6" value="" style="endArrow=classic;html=1;rounded=0;exitX=1;exitY=0.5;exitDx=0;exitDy=0;entryX=0;entryY=0.5;entryDx=0;entryDy=0;strokeWidth=2;strokeColor=#1976D2;" parent="1" source="4" target="5" edge="1">
                    <mxGeometry width="50" height="50" relative="1" as="geometry">
                        <mxPoint x="520" y="300" as="sourcePoint"/>
                        <mxPoint x="570" y="250" as="targetPoint"/>
                    </mxGeometry>
                </mxCell>
                <mxCell id="7" value="Authentication &amp; API" style="text;html=1;strokeColor=none;fillColor=none;align=center;verticalAlign=middle;whiteSpace=wrap;rounded=0;fontSize=24;fontStyle=1;fontColor=#1565C0;" parent="1" vertex="1">
                    <mxGeometry x="465" y="200" width="240" height="30" as="geometry"/>
                </mxCell>
                <mxCell id="8" value="Firebase&#xa;Authentication" style="rounded=1;whiteSpace=wrap;html=1;fillColor=#FFF3E0;strokeColor=#F57C00;fontSize=14;fontStyle=1;" parent="1" vertex="1">
                    <mxGeometry x="134" y="200" width="140" height="60" as="geometry"/>
                </mxCell>
                <mxCell id="9" value="FastAPI Backend&#xa;(Google Cloud Run)" style="rounded=1;whiteSpace=wrap;html=1;fillColor=#E8F5E8;strokeColor=#4CAF50;fontSize=14;fontStyle=1;" parent="1" vertex="1">
                    <mxGeometry x="630" y="250" width="180" height="60" as="geometry"/>
                </mxCell>
                <mxCell id="10" value="" style="endArrow=classic;html=1;rounded=0;exitX=0.25;exitY=1;exitDx=0;exitDy=0;entryX=0.5;entryY=0;entryDx=0;entryDy=0;strokeWidth=2;strokeColor=#F57C00;" parent="1" source="5" target="8" edge="1">
                    <mxGeometry width="50" height="50" relative="1" as="geometry">
                        <mxPoint x="520" y="300" as="sourcePoint"/>
                        <mxPoint x="570" y="250" as="targetPoint"/>
                    </mxGeometry>
                </mxCell>
                <mxCell id="11" value="" style="endArrow=classic;html=1;rounded=0;exitX=0.75;exitY=1;exitDx=0;exitDy=0;entryX=0.5;entryY=0;entryDx=0;entryDy=0;strokeWidth=2;strokeColor=#4CAF50;" parent="1" source="5" target="9" edge="1">
                    <mxGeometry width="50" height="50" relative="1" as="geometry">
                        <mxPoint x="520" y="300" as="sourcePoint"/>
                        <mxPoint x="570" y="250" as="targetPoint"/>
                    </mxGeometry>
                </mxCell>
                <mxCell id="12" value="" style="endArrow=classic;html=1;rounded=0;exitX=1;exitY=0.5;exitDx=0;exitDy=0;entryX=0;entryY=0.5;entryDx=0;entryDy=0;strokeWidth=2;strokeColor=#FF9800;" parent="1" source="8" target="9" edge="1">
                    <mxGeometry width="50" height="50" relative="1" as="geometry">
                        <mxPoint x="520" y="300" as="sourcePoint"/>
                        <mxPoint x="570" y="250" as="targetPoint"/>
                    </mxGeometry>
                </mxCell>
                <mxCell id="13" value="Google Agent Development Kit (ADK)" style="rounded=1;whiteSpace=wrap;html=1;fillColor=#1565C0;strokeColor=#0D47A1;fontSize=18;fontStyle=1;fontColor=white;" parent="1" vertex="1">
                    <mxGeometry x="160" y="380" width="520" height="50" as="geometry"/>
                </mxCell>
                <mxCell id="14" value="1. Task Master Agent&#xa;(orchestrator)" style="rounded=1;whiteSpace=wrap;html=1;fillColor=#FFFFFF;strokeColor=#1565C0;fontSize=12;fontStyle=1;" parent="1" vertex="1">
                    <mxGeometry x="180" y="450" width="140" height="60" as="geometry"/>
                </mxCell>
                <mxCell id="15" value="2. Guide Agent&#xa;(analysis)" style="rounded=1;whiteSpace=wrap;html=1;fillColor=#FFFFFF;strokeColor=#1565C0;fontSize=12;fontStyle=1;" parent="1" vertex="1">
                    <mxGeometry x="340" y="450" width="140" height="60" as="geometry"/>
                </mxCell>
                <mxCell id="16" value="3. Search Agent&#xa;(enhancement)" style="rounded=1;whiteSpace=wrap;html=1;fillColor=#FFFFFF;strokeColor=#1565C0;fontSize=12;fontStyle=1;" parent="1" vertex="1">
                    <mxGeometry x="500" y="450" width="140" height="60" as="geometry"/>
                </mxCell>
                <mxCell id="17" value="4. Prompt Writer Agent&#xa;(composition generation)" style="rounded=1;whiteSpace=wrap;html=1;fillColor=#FFFFFF;strokeColor=#1565C0;fontSize=12;fontStyle=1;" parent="1" vertex="1">
                    <mxGeometry x="180" y="530" width="140" height="60" as="geometry"/>
                </mxCell>
                <mxCell id="18" value="" style="endArrow=classic;html=1;rounded=0;exitX=1;exitY=0.5;exitDx=0;exitDy=0;entryX=0;entryY=0.5;entryDx=0;entryDy=0;strokeWidth=3;strokeColor=#1565C0;" parent="1" source="14" target="15" edge="1">
                    <mxGeometry width="50" height="50" relative="1" as="geometry">
                        <mxPoint x="520" y="500" as="sourcePoint"/>
                        <mxPoint x="570" y="450" as="targetPoint"/>
                    </mxGeometry>
                </mxCell>
                <mxCell id="19" value="" style="endArrow=classic;html=1;rounded=0;exitX=1;exitY=0.5;exitDx=0;exitDy=0;entryX=0;entryY=0.5;entryDx=0;entryDy=0;strokeWidth=3;strokeColor=#1565C0;" parent="1" source="15" target="16" edge="1">
                    <mxGeometry width="50" height="50" relative="1" as="geometry">
                        <mxPoint x="520" y="500" as="sourcePoint"/>
                        <mxPoint x="570" y="450" as="targetPoint"/>
                    </mxGeometry>
                </mxCell>
                <mxCell id="20" value="" style="endArrow=classic;html=1;rounded=0;exitX=0.5;exitY=1;exitDx=0;exitDy=0;entryX=1;entryY=0.5;entryDx=0;entryDy=0;strokeWidth=3;strokeColor=#1565C0;" parent="1" source="16" target="17" edge="1">
                    <mxGeometry width="50" height="50" relative="1" as="geometry">
                        <mxPoint x="520" y="500" as="sourcePoint"/>
                        <mxPoint x="570" y="450" as="targetPoint"/>
                        <Array as="points">
                            <mxPoint x="570" y="560"/>
                        </Array>
                    </mxGeometry>
                </mxCell>
                <mxCell id="21" value="" style="endArrow=classic;html=1;rounded=0;exitX=0.5;exitY=1;exitDx=0;exitDy=0;entryX=0.5;entryY=0;entryDx=0;entryDy=0;strokeWidth=2;strokeColor=#1565C0;" parent="1" source="9" target="13" edge="1">
                    <mxGeometry width="50" height="50" relative="1" as="geometry">
                        <mxPoint x="520" y="400" as="sourcePoint"/>
                        <mxPoint x="570" y="350" as="targetPoint"/>
                    </mxGeometry>
                </mxCell>
                <mxCell id="22" value="Gemini 2.0 Flash&#xa;(Vertex AI)" style="rounded=1;whiteSpace=wrap;html=1;fillColor=#F3E5F5;strokeColor=#7B1FA2;fontSize=12;fontStyle=1;" parent="1" vertex="1">
                    <mxGeometry x="720" y="450" width="120" height="60" as="geometry"/>
                </mxCell>
                <mxCell id="23" value="" style="endArrow=classic;html=1;rounded=0;exitX=1;exitY=0.5;exitDx=0;exitDy=0;entryX=0;entryY=0.5;entryDx=0;entryDy=0;strokeWidth=2;strokeColor=#7B1FA2;" parent="1" source="13" target="22" edge="1">
                    <mxGeometry width="50" height="50" relative="1" as="geometry">
                        <mxPoint x="520" y="500" as="sourcePoint"/>
                        <mxPoint x="570" y="450" as="targetPoint"/>
                    </mxGeometry>
                </mxCell>
                <mxCell id="24" value="Data Layer" style="text;html=1;strokeColor=none;fillColor=none;align=center;verticalAlign=middle;whiteSpace=wrap;rounded=0;fontSize=24;fontStyle=1;fontColor=#1565C0;" parent="1" vertex="1">
                    <mxGeometry x="500" y="640" width="160" height="30" as="geometry"/>
                </mxCell>
                <mxCell id="25" value="Firestore&#xa;Database" style="rounded=1;whiteSpace=wrap;html=1;fillColor=#E1F5FE;strokeColor=#0277BD;fontSize=14;fontStyle=1;" parent="1" vertex="1">
                    <mxGeometry x="20" y="450" width="140" height="60" as="geometry"/>
                </mxCell>
                <mxCell id="26" value="Google Search&#xa;API" style="rounded=1;whiteSpace=wrap;html=1;fillColor=#FAFAFA;strokeColor=#757575;fontSize=14;fontStyle=1;" parent="1" vertex="1">
                    <mxGeometry x="500" y="690" width="140" height="60" as="geometry"/>
                </mxCell>
                <mxCell id="27" value="Firebase Functions&#xa;(User Management)" style="rounded=1;whiteSpace=wrap;html=1;fillColor=#FFF3E0;strokeColor=#F57C00;fontSize=12;fontStyle=1;" parent="1" vertex="1">
                    <mxGeometry x="380" y="250" width="140" height="60" as="geometry"/>
                </mxCell>
                <mxCell id="28" value="" style="endArrow=classic;html=1;rounded=0;exitX=1;exitY=0.5;exitDx=0;exitDy=0;entryX=0;entryY=0.5;entryDx=0;entryDy=0;strokeWidth=2;strokeColor=#F57C00;" parent="1" source="8" target="27" edge="1">
                    <mxGeometry width="50" height="50" relative="1" as="geometry">
                        <mxPoint x="520" y="300" as="sourcePoint"/>
                        <mxPoint x="570" y="250" as="targetPoint"/>
                    </mxGeometry>
                </mxCell>
                <mxCell id="29" value="" style="endArrow=classic;html=1;rounded=0;exitX=0.25;exitY=1;exitDx=0;exitDy=0;entryX=0.5;entryY=0;entryDx=0;entryDy=0;strokeWidth=2;strokeColor=#0277BD;" parent="1" source="13" target="25" edge="1">
                    <mxGeometry width="50" height="50" relative="1" as="geometry">
                        <mxPoint x="520" y="500" as="sourcePoint"/>
                        <mxPoint x="570" y="450" as="targetPoint"/>
                    </mxGeometry>
                </mxCell>
                <mxCell id="30" value="" style="endArrow=classic;html=1;rounded=0;exitX=0.5;exitY=1;exitDx=0;exitDy=0;entryX=0.5;entryY=0;entryDx=0;entryDy=0;strokeWidth=2;strokeColor=#757575;" parent="1" source="16" target="26" edge="1">
                    <mxGeometry width="50" height="50" relative="1" as="geometry">
                        <mxPoint x="520" y="600" as="sourcePoint"/>
                        <mxPoint x="570" y="550" as="targetPoint"/>
                    </mxGeometry>
                </mxCell>
                <mxCell id="31" value="Google Cloud" style="text;html=1;strokeColor=none;fillColor=none;align=center;verticalAlign=middle;whiteSpace=wrap;rounded=0;fontSize=18;fontStyle=1;fontColor=#1565C0;" parent="1" vertex="1">
                    <mxGeometry x="500" y="780" width="160" height="30" as="geometry"/>
                </mxCell>
            </root>
        </mxGraphModel>
    </diagram>
</mxfile>